<?xml version="1.0" standalone="no"?>
<!DOCTYPE svg PUBLIC "-//W3C//DTD SVG 20010904//EN"
 "http://www.w3.org/TR/2001/REC-SVG-20010904/DTD/svg10.dtd">
<svg version="1.0" xmlns="http://www.w3.org/2000/svg"
 width="567.000000pt" height="568.000000pt" viewBox="0 0 567.000000 568.000000"
 preserveAspectRatio="xMidYMid meet">

<g transform="translate(0.000000,568.000000) scale(0.100000,-0.100000)"
fill="#000000" stroke="none">
<path d="M2801 4075 c-207 -38 -383 -200 -435 -401 -80 -311 140 -617 478
-665 111 -15 166 14 166 89 0 70 -28 91 -137 103 -129 14 -238 91 -295 207
-34 69 -33 206 2 277 33 67 108 140 178 173 l57 27 338 3 337 3 0 -736 0 -737
29 -29 c39 -38 97 -40 138 -5 l28 24 3 741 2 741 221 0 c144 0 228 4 242 11
94 48 90 142 -6 178 -45 17 -1251 13 -1346 -4z"/>
<path d="M3076 3539 c-31 -37 -32 -66 -5 -144 29 -83 42 -222 29 -315 -29
-210 -190 -380 -398 -420 -87 -17 -250 -8 -334 19 -61 20 -70 20 -102 7 -19
-8 -39 -23 -45 -34 -17 -33 -13 -87 9 -115 31 -40 67 -42 162 -11 74 25 97 28
213 28 114 -1 140 -4 213 -28 52 -17 112 -47 161 -80 95 -65 138 -80 206 -73
129 13 225 117 224 242 -1 67 -15 103 -72 180 -61 83 -103 167 -122 247 -22
92 -19 248 5 336 27 97 26 137 -5 167 -18 19 -35 25 -69 25 -37 0 -48 -5 -70
-31z"/>
<path d="M1996 3184 c-171 -41 -327 -182 -388 -349 -30 -83 -36 -241 -13 -321
58 -203 221 -357 422 -399 101 -22 1580 -22 1622 -1 28 15 51 53 51 87 0 28
-26 75 -47 85 -10 5 -376 11 -813 14 l-795 5 -50 25 c-76 37 -157 123 -184
195 -19 50 -22 75 -19 145 5 104 35 167 115 240 81 74 137 91 318 97 83 3 158
10 167 15 10 5 25 23 34 40 22 43 5 102 -36 123 -39 20 -299 20 -384 -1z"/>
<path d="M3798 3164 c-54 -29 -66 -102 -24 -151 23 -27 28 -28 130 -31 l106
-4 36 36 c33 33 36 41 31 74 -4 24 -17 47 -37 65 -29 25 -36 27 -123 27 -62
-1 -101 -6 -119 -16z"/>
<path d="M1437 1623 c-4 -3 -7 -60 -7 -126 l0 -119 66 4 c55 3 70 8 85 27 26
32 24 66 -5 89 -24 18 -24 19 -5 35 31 27 24 64 -18 86 -23 12 -105 15 -116 4z
m110 -40 c17 -22 0 -50 -37 -58 -16 -4 -34 -4 -40 0 -12 7 -14 68 -3 79 12 12
67 -2 80 -21z m3 -103 c24 -24 25 -34 5 -53 -17 -18 -70 -31 -85 -22 -5 3 -10
26 -10 51 0 44 0 44 35 44 22 0 43 -8 55 -20z"/>
<path d="M1700 1625 c0 -2 18 -34 40 -70 34 -55 40 -74 40 -120 0 -42 3 -55
15 -55 11 0 15 12 15 48 0 39 8 61 45 121 25 40 45 75 45 77 0 2 -8 4 -17 4
-11 0 -29 -21 -48 -55 -16 -30 -32 -55 -35 -55 -3 0 -19 25 -35 55 -19 34 -37
55 -47 55 -10 0 -18 -2 -18 -5z"/>
<path d="M2010 1615 c0 -11 11 -15 40 -15 l40 0 0 -110 c0 -91 3 -110 15 -110
12 0 15 19 15 110 l0 110 45 0 c33 0 45 4 45 15 0 12 -18 15 -100 15 -82 0
-100 -3 -100 -15z"/>
<path d="M2320 1505 l0 -125 75 0 c60 0 75 3 75 15 0 12 -13 15 -60 15 l-60 0
0 40 0 40 55 0 c42 0 55 3 55 15 0 12 -13 15 -55 15 l-55 0 0 40 0 40 60 0
c47 0 60 3 60 15 0 12 -15 15 -75 15 l-75 0 0 -125z"/>
<path d="M2760 1505 c0 -104 2 -125 15 -125 12 0 15 13 15 55 l0 55 55 0 c42
0 55 3 55 15 0 12 -13 15 -55 15 l-55 0 0 40 0 40 55 0 c42 0 55 3 55 15 0 12
-14 15 -70 15 l-70 0 0 -125z"/>
<path d="M3042 1529 c3 -97 4 -102 32 -126 25 -21 37 -24 74 -20 73 8 86 30
90 147 3 83 1 100 -11 100 -12 0 -15 -20 -19 -95 -4 -107 -16 -128 -68 -128
-52 0 -64 21 -68 128 -4 75 -7 95 -19 95 -12 0 -14 -17 -11 -101z"/>
<path d="M3412 1618 c-23 -12 -36 -43 -30 -75 1 -10 23 -28 47 -39 56 -27 74
-50 60 -76 -9 -16 -20 -19 -62 -17 -60 4 -77 -16 -22 -27 50 -9 97 6 114 38
22 39 3 74 -54 98 -50 22 -64 42 -44 66 9 11 25 15 51 12 23 -2 39 1 42 8 9
24 -60 32 -102 12z"/>
<path d="M3660 1505 c0 -104 2 -125 15 -125 13 0 15 21 15 125 0 104 -2 125
-15 125 -13 0 -15 -21 -15 -125z"/>
<path d="M3869 1607 c-65 -44 -73 -142 -15 -196 54 -51 159 -32 190 34 58 122
-65 236 -175 162z m123 -24 c10 -8 22 -31 28 -49 10 -28 8 -41 -7 -72 -24 -49
-63 -68 -104 -51 -98 40 -61 215 41 193 14 -3 33 -13 42 -21z"/>
<path d="M4190 1505 c0 -103 3 -125 15 -125 11 0 15 20 17 101 l3 100 65 -100
c90 -140 100 -138 100 24 0 103 -3 125 -15 125 -11 0 -15 -20 -17 -95 l-3 -95
-64 95 c-42 64 -69 95 -82 95 -18 0 -19 -9 -19 -125z"/>
</g>
</svg>
